<svg xmlns="http://www.w3.org/2000/svg" xmlns:xlink="http://www.w3.org/1999/xlink" width="1920" zoomAndPan="magnify" viewBox="0 0 1440 809.999993" height="1080" preserveAspectRatio="xMidYMid meet" version="1.0"><defs><g/><clipPath id="3eadb99a4f"><path d="M 31.011719 242.789062 L 355.046875 242.789062 L 355.046875 566.824219 L 31.011719 566.824219 Z M 31.011719 242.789062 " clip-rule="nonzero"/></clipPath><clipPath id="f2571b636b"><path d="M 193.027344 242.789062 C 282.507812 242.789062 355.046875 315.328125 355.046875 404.804688 C 355.046875 494.285156 282.507812 566.824219 193.027344 566.824219 C 103.546875 566.824219 31.011719 494.285156 31.011719 404.804688 C 31.011719 315.328125 103.546875 242.789062 193.027344 242.789062 L 193.027344 307.597656 C 139.339844 307.597656 95.816406 351.117188 95.816406 404.804688 C 95.816406 458.492188 139.339844 502.015625 193.027344 502.015625 C 246.714844 502.015625 290.238281 458.492188 290.238281 404.804688 C 290.238281 351.117188 246.714844 307.597656 193.027344 307.597656 Z M 193.027344 242.789062 " clip-rule="nonzero"/></clipPath><clipPath id="be9b269a59"><path d="M 66 246.585938 L 356 246.585938 L 356 567 L 66 567 Z M 66 246.585938 " clip-rule="nonzero"/></clipPath><clipPath id="b0d0e4973a"><path d="M 233.53125 247.933594 C 300.234375 265.15625 348.75 322.671875 354.484375 391.320312 C 360.214844 459.972656 321.914062 524.738281 258.992188 552.785156 C 196.074219 580.835938 122.296875 566.027344 75.074219 515.875 C 62.804688 502.84375 63.421875 482.339844 76.449219 470.070312 C 89.480469 457.800781 109.988281 458.417969 122.253906 471.445312 C 150.589844 501.539062 194.855469 510.421875 232.605469 493.59375 C 270.359375 476.765625 293.339844 437.90625 289.902344 396.714844 C 286.460938 355.527344 257.351562 321.015625 217.332031 310.683594 C 206.121094 307.789062 197.308594 299.132812 194.210938 287.980469 C 191.113281 276.824219 194.199219 264.867188 202.3125 256.605469 C 210.421875 248.34375 222.324219 245.039062 233.53125 247.933594 Z M 233.53125 247.933594 " clip-rule="nonzero"/></clipPath></defs><g fill="#ffffff" fill-opacity="1"><g transform="translate(355.045301, 507.132621)"><g><path d="M 49.421875 0 L 26.78125 0 L 26.78125 -194.78125 L 135.359375 -194.78125 L 135.359375 -174.671875 L 49.421875 -174.671875 L 49.421875 -103.390625 L 130.171875 -103.390625 L 130.171875 -83.265625 L 49.421875 -83.265625 Z M 49.421875 0 "/></g></g></g><g fill="#ffffff" fill-opacity="1"><g transform="translate(495.863458, 507.132621)"><g><path d="M 45.5625 0 L 23.453125 0 L 23.453125 -146.015625 L 45.5625 -146.015625 Z M 21.578125 -185.59375 C 21.578125 -190.65625 22.820312 -194.363281 25.3125 -196.71875 C 27.800781 -199.070312 30.910156 -200.25 34.640625 -200.25 C 38.191406 -200.25 41.253906 -199.046875 43.828125 -196.640625 C 46.410156 -194.242188 47.703125 -190.5625 47.703125 -185.59375 C 47.703125 -180.613281 46.410156 -176.898438 43.828125 -174.453125 C 41.253906 -172.015625 38.191406 -170.796875 34.640625 -170.796875 C 30.910156 -170.796875 27.800781 -172.015625 25.3125 -174.453125 C 22.820312 -176.898438 21.578125 -180.613281 21.578125 -185.59375 Z M 21.578125 -185.59375 "/></g></g></g><g fill="#ffffff" fill-opacity="1"><g transform="translate(564.873662, 507.132621)"><g><path d="M 123.375 0 L 123.375 -94.46875 C 123.375 -106.363281 120.664062 -115.242188 115.25 -121.109375 C 109.832031 -126.972656 101.347656 -129.90625 89.796875 -129.90625 C 74.515625 -129.90625 63.320312 -125.773438 56.21875 -117.515625 C 49.113281 -109.253906 45.5625 -95.617188 45.5625 -76.609375 L 45.5625 0 L 23.453125 0 L 23.453125 -146.015625 L 41.4375 -146.015625 L 45.03125 -126.03125 L 46.09375 -126.03125 C 50.625 -133.226562 56.972656 -138.800781 65.140625 -142.75 C 73.316406 -146.707031 82.425781 -148.6875 92.46875 -148.6875 C 110.050781 -148.6875 123.28125 -144.441406 132.15625 -135.953125 C 141.039062 -127.472656 145.484375 -113.910156 145.484375 -95.265625 L 145.484375 0 Z M 123.375 0 "/></g></g></g><g fill="#ffffff" fill-opacity="1"><g transform="translate(732.336686, 507.132621)"><g><path d="M 86.734375 0 L 64.078125 0 L 64.078125 -174.671875 L 2.390625 -174.671875 L 2.390625 -194.78125 L 148.421875 -194.78125 L 148.421875 -174.671875 L 86.734375 -174.671875 Z M 86.734375 0 "/></g></g></g><g fill="#ffffff" fill-opacity="1"><g transform="translate(883.279896, 507.132621)"><g><path d="M 90.0625 -148.6875 C 96.550781 -148.6875 102.367188 -148.15625 107.515625 -147.09375 L 104.453125 -126.578125 C 98.410156 -127.898438 93.082031 -128.5625 88.46875 -128.5625 C 76.65625 -128.5625 66.550781 -123.765625 58.15625 -114.171875 C 49.757812 -104.585938 45.5625 -92.644531 45.5625 -78.34375 L 45.5625 0 L 23.453125 0 L 23.453125 -146.015625 L 41.703125 -146.015625 L 44.234375 -118.96875 L 45.296875 -118.96875 C 50.710938 -128.476562 57.238281 -135.804688 64.875 -140.953125 C 72.519531 -146.109375 80.914062 -148.6875 90.0625 -148.6875 Z M 90.0625 -148.6875 "/></g></g></g><g fill="#ffffff" fill-opacity="1"><g transform="translate(994.655436, 507.132621)"><g><path d="M 113.25 0 L 108.84375 -20.78125 L 107.78125 -20.78125 C 100.5 -11.632812 93.238281 -5.4375 86 -2.1875 C 78.757812 1.050781 69.722656 2.671875 58.890625 2.671875 C 44.410156 2.671875 33.0625 -1.054688 24.84375 -8.515625 C 16.632812 -15.984375 12.53125 -26.601562 12.53125 -40.375 C 12.53125 -69.863281 36.109375 -85.316406 83.265625 -86.734375 L 108.046875 -87.53125 L 108.046875 -96.59375 C 108.046875 -108.050781 105.582031 -116.507812 100.65625 -121.96875 C 95.726562 -127.4375 87.847656 -130.171875 77.015625 -130.171875 C 64.835938 -130.171875 51.066406 -126.4375 35.703125 -118.96875 L 28.90625 -135.890625 C 36.101562 -139.804688 43.988281 -142.875 52.5625 -145.09375 C 61.132812 -147.3125 69.726562 -148.421875 78.34375 -148.421875 C 95.75 -148.421875 108.648438 -144.554688 117.046875 -136.828125 C 125.441406 -129.097656 129.640625 -116.707031 129.640625 -99.65625 L 129.640625 0 Z M 63.28125 -15.59375 C 77.050781 -15.59375 87.863281 -19.363281 95.71875 -26.90625 C 103.582031 -34.457031 107.515625 -45.03125 107.515625 -58.625 L 107.515625 -71.8125 L 85.40625 -70.875 C 67.8125 -70.257812 55.128906 -67.53125 47.359375 -62.6875 C 39.585938 -57.84375 35.703125 -50.316406 35.703125 -40.109375 C 35.703125 -32.109375 38.125 -26.019531 42.96875 -21.84375 C 47.8125 -17.675781 54.582031 -15.59375 63.28125 -15.59375 Z M 63.28125 -15.59375 "/></g></g></g><g fill="#ffffff" fill-opacity="1"><g transform="translate(1146.397987, 507.132621)"><g><path d="M 81.796875 2.671875 C 60.660156 2.671875 44.296875 -3.832031 32.703125 -16.84375 C 21.117188 -29.863281 15.328125 -48.273438 15.328125 -72.078125 C 15.328125 -96.503906 21.207031 -115.378906 32.96875 -128.703125 C 44.738281 -142.023438 61.503906 -148.6875 83.265625 -148.6875 C 90.285156 -148.6875 97.300781 -147.929688 104.3125 -146.421875 C 111.332031 -144.910156 116.84375 -143.132812 120.84375 -141.09375 L 114.046875 -122.3125 C 109.160156 -124.257812 103.832031 -125.878906 98.0625 -127.171875 C 92.289062 -128.460938 87.179688 -129.109375 82.734375 -129.109375 C 53.066406 -129.109375 38.234375 -110.1875 38.234375 -72.34375 C 38.234375 -54.40625 41.851562 -40.640625 49.09375 -31.046875 C 56.332031 -21.453125 67.054688 -16.65625 81.265625 -16.65625 C 93.441406 -16.65625 105.921875 -19.273438 118.703125 -24.515625 L 118.703125 -4.921875 C 108.929688 0.140625 96.628906 2.671875 81.796875 2.671875 Z M 81.796875 2.671875 "/></g></g></g><g fill="#ffffff" fill-opacity="1"><g transform="translate(1276.291749, 507.132621)"><g><path d="M 45.296875 -74.75 C 49.117188 -80.164062 54.9375 -87.269531 62.75 -96.0625 L 109.921875 -146.015625 L 136.15625 -146.015625 L 77.015625 -83.796875 L 140.296875 0 L 113.515625 0 L 61.953125 -69.015625 L 45.296875 -54.625 L 45.296875 0 L 23.453125 0 L 23.453125 -207.3125 L 45.296875 -207.3125 L 45.296875 -97.390625 C 45.296875 -92.503906 44.941406 -84.957031 44.234375 -74.75 Z M 45.296875 -74.75 "/></g></g></g><g clip-path="url(#3eadb99a4f)"><g clip-path="url(#f2571b636b)"><path fill="#00bf63" d="M 31.011719 242.789062 L 355.046875 242.789062 L 355.046875 566.824219 L 31.011719 566.824219 Z M 31.011719 242.789062 " fill-opacity="1" fill-rule="nonzero"/></g></g><g clip-path="url(#be9b269a59)"><g clip-path="url(#b0d0e4973a)"><path fill="#7ed957" d="M 31.011719 242.789062 L 355.046875 242.789062 L 355.046875 566.824219 L 31.011719 566.824219 Z M 31.011719 242.789062 " fill-opacity="1" fill-rule="nonzero"/></g></g></svg>